<mxfile host="app.diagrams.net" agent="Mozilla/5.0 (Windows NT 10.0; Win64; x64) AppleWebKit/537.36 (KHTML, like Gecko) Chrome/131.0.0.0 Safari/537.36" version="25.0.3">
  <diagram id="C5RBs43oDa-KdzZeNtuy" name="Page-1">
    <mxGraphModel dx="1687" dy="1075" grid="1" gridSize="10" guides="1" tooltips="1" connect="1" arrows="1" fold="1" page="1" pageScale="1" pageWidth="827" pageHeight="1169" math="0" shadow="0">
      <root>
        <mxCell id="WIyWlLk6GJQsqaUBKTNV-0" />
        <mxCell id="WIyWlLk6GJQsqaUBKTNV-1" parent="WIyWlLk6GJQsqaUBKTNV-0" />
        <mxCell id="PyQ4CkxZhW2WTcym9NRd-2" value="" style="edgeStyle=orthogonalEdgeStyle;rounded=0;orthogonalLoop=1;jettySize=auto;html=1;" edge="1" parent="WIyWlLk6GJQsqaUBKTNV-1" source="WIyWlLk6GJQsqaUBKTNV-3" target="PyQ4CkxZhW2WTcym9NRd-1">
          <mxGeometry relative="1" as="geometry" />
        </mxCell>
        <mxCell id="WIyWlLk6GJQsqaUBKTNV-3" value="Create Set and Array" style="rounded=1;whiteSpace=wrap;html=1;fontSize=12;glass=0;strokeWidth=1;shadow=0;" parent="WIyWlLk6GJQsqaUBKTNV-1" vertex="1">
          <mxGeometry x="160" y="80" width="120" height="40" as="geometry" />
        </mxCell>
        <mxCell id="PyQ4CkxZhW2WTcym9NRd-15" value="" style="edgeStyle=orthogonalEdgeStyle;rounded=0;orthogonalLoop=1;jettySize=auto;html=1;" edge="1" parent="WIyWlLk6GJQsqaUBKTNV-1" source="WIyWlLk6GJQsqaUBKTNV-11" target="PyQ4CkxZhW2WTcym9NRd-14">
          <mxGeometry relative="1" as="geometry" />
        </mxCell>
        <mxCell id="WIyWlLk6GJQsqaUBKTNV-11" value="Get node with lowest FCost in the array and put it into the Set" style="rounded=1;whiteSpace=wrap;html=1;fontSize=12;glass=0;strokeWidth=1;shadow=0;" parent="WIyWlLk6GJQsqaUBKTNV-1" vertex="1">
          <mxGeometry x="300" y="450" width="120" height="60" as="geometry" />
        </mxCell>
        <mxCell id="PyQ4CkxZhW2WTcym9NRd-5" value="" style="edgeStyle=orthogonalEdgeStyle;rounded=0;orthogonalLoop=1;jettySize=auto;html=1;" edge="1" parent="WIyWlLk6GJQsqaUBKTNV-1" source="PyQ4CkxZhW2WTcym9NRd-1" target="PyQ4CkxZhW2WTcym9NRd-4">
          <mxGeometry relative="1" as="geometry" />
        </mxCell>
        <mxCell id="PyQ4CkxZhW2WTcym9NRd-9" style="edgeStyle=orthogonalEdgeStyle;rounded=0;orthogonalLoop=1;jettySize=auto;html=1;exitX=0.5;exitY=0;exitDx=0;exitDy=0;entryX=0.5;entryY=0;entryDx=0;entryDy=0;" edge="1" parent="WIyWlLk6GJQsqaUBKTNV-1" source="PyQ4CkxZhW2WTcym9NRd-8" target="PyQ4CkxZhW2WTcym9NRd-7">
          <mxGeometry relative="1" as="geometry" />
        </mxCell>
        <mxCell id="PyQ4CkxZhW2WTcym9NRd-1" value="For each node, create:" style="rounded=1;whiteSpace=wrap;html=1;fontSize=12;glass=0;strokeWidth=1;shadow=0;" vertex="1" parent="WIyWlLk6GJQsqaUBKTNV-1">
          <mxGeometry x="160" y="160" width="120" height="40" as="geometry" />
        </mxCell>
        <mxCell id="PyQ4CkxZhW2WTcym9NRd-10" style="edgeStyle=orthogonalEdgeStyle;rounded=0;orthogonalLoop=1;jettySize=auto;html=1;" edge="1" parent="WIyWlLk6GJQsqaUBKTNV-1" source="PyQ4CkxZhW2WTcym9NRd-4">
          <mxGeometry relative="1" as="geometry">
            <mxPoint x="160" y="400" as="targetPoint" />
          </mxGeometry>
        </mxCell>
        <mxCell id="PyQ4CkxZhW2WTcym9NRd-4" value="GCost&lt;div&gt;(Distance from starting Node)&lt;/div&gt;" style="rounded=1;whiteSpace=wrap;html=1;fontSize=12;glass=0;strokeWidth=1;shadow=0;" vertex="1" parent="WIyWlLk6GJQsqaUBKTNV-1">
          <mxGeometry x="40" y="240" width="120" height="50" as="geometry" />
        </mxCell>
        <mxCell id="PyQ4CkxZhW2WTcym9NRd-11" style="edgeStyle=orthogonalEdgeStyle;rounded=0;orthogonalLoop=1;jettySize=auto;html=1;" edge="1" parent="WIyWlLk6GJQsqaUBKTNV-1" source="PyQ4CkxZhW2WTcym9NRd-7">
          <mxGeometry relative="1" as="geometry">
            <mxPoint x="220" y="400" as="targetPoint" />
          </mxGeometry>
        </mxCell>
        <mxCell id="PyQ4CkxZhW2WTcym9NRd-7" value="HCost&lt;div&gt;(&lt;span style=&quot;color: rgb(31, 31, 31); font-family: Poppins, helvetica; font-size: 15px; letter-spacing: 0.3px; text-align: start; background-color: rgb(255, 255, 255);&quot;&gt;Distance from End node, Heuristic Cost&lt;/span&gt;)&lt;/div&gt;" style="rounded=1;whiteSpace=wrap;html=1;fontSize=12;glass=0;strokeWidth=1;shadow=0;" vertex="1" parent="WIyWlLk6GJQsqaUBKTNV-1">
          <mxGeometry x="160" y="240" width="120" height="80" as="geometry" />
        </mxCell>
        <mxCell id="PyQ4CkxZhW2WTcym9NRd-12" style="edgeStyle=orthogonalEdgeStyle;rounded=0;orthogonalLoop=1;jettySize=auto;html=1;" edge="1" parent="WIyWlLk6GJQsqaUBKTNV-1" source="PyQ4CkxZhW2WTcym9NRd-8">
          <mxGeometry relative="1" as="geometry">
            <mxPoint x="280" y="400" as="targetPoint" />
          </mxGeometry>
        </mxCell>
        <mxCell id="PyQ4CkxZhW2WTcym9NRd-8" value="FCost&lt;div&gt;GCost + HCost&lt;/div&gt;" style="rounded=1;whiteSpace=wrap;html=1;fontSize=12;glass=0;strokeWidth=1;shadow=0;" vertex="1" parent="WIyWlLk6GJQsqaUBKTNV-1">
          <mxGeometry x="280" y="240" width="120" height="50" as="geometry" />
        </mxCell>
        <mxCell id="PyQ4CkxZhW2WTcym9NRd-19" value="" style="edgeStyle=orthogonalEdgeStyle;rounded=0;orthogonalLoop=1;jettySize=auto;html=1;" edge="1" parent="WIyWlLk6GJQsqaUBKTNV-1" source="PyQ4CkxZhW2WTcym9NRd-14" target="PyQ4CkxZhW2WTcym9NRd-18">
          <mxGeometry relative="1" as="geometry" />
        </mxCell>
        <mxCell id="PyQ4CkxZhW2WTcym9NRd-14" value="Set as Current Node" style="rounded=1;whiteSpace=wrap;html=1;fontSize=12;glass=0;strokeWidth=1;shadow=0;" vertex="1" parent="WIyWlLk6GJQsqaUBKTNV-1">
          <mxGeometry x="160" y="520" width="120" height="60" as="geometry" />
        </mxCell>
        <mxCell id="PyQ4CkxZhW2WTcym9NRd-17" style="edgeStyle=orthogonalEdgeStyle;rounded=0;orthogonalLoop=1;jettySize=auto;html=1;entryX=0.5;entryY=0;entryDx=0;entryDy=0;" edge="1" parent="WIyWlLk6GJQsqaUBKTNV-1" source="PyQ4CkxZhW2WTcym9NRd-16" target="WIyWlLk6GJQsqaUBKTNV-11">
          <mxGeometry relative="1" as="geometry" />
        </mxCell>
        <mxCell id="PyQ4CkxZhW2WTcym9NRd-16" value="Insert Starting node in Array" style="rounded=1;whiteSpace=wrap;html=1;fontSize=12;glass=0;strokeWidth=1;shadow=0;" vertex="1" parent="WIyWlLk6GJQsqaUBKTNV-1">
          <mxGeometry x="160" y="400" width="120" height="60" as="geometry" />
        </mxCell>
        <mxCell id="PyQ4CkxZhW2WTcym9NRd-22" value="" style="edgeStyle=orthogonalEdgeStyle;rounded=0;orthogonalLoop=1;jettySize=auto;html=1;" edge="1" parent="WIyWlLk6GJQsqaUBKTNV-1" source="PyQ4CkxZhW2WTcym9NRd-18" target="PyQ4CkxZhW2WTcym9NRd-21">
          <mxGeometry relative="1" as="geometry" />
        </mxCell>
        <mxCell id="PyQ4CkxZhW2WTcym9NRd-18" value="Remove node with lowest FCost from the Array and place it in Set" style="rounded=1;whiteSpace=wrap;html=1;fontSize=12;glass=0;strokeWidth=1;shadow=0;" vertex="1" parent="WIyWlLk6GJQsqaUBKTNV-1">
          <mxGeometry x="300" y="590" width="120" height="60" as="geometry" />
        </mxCell>
        <mxCell id="PyQ4CkxZhW2WTcym9NRd-24" value="" style="edgeStyle=orthogonalEdgeStyle;rounded=0;orthogonalLoop=1;jettySize=auto;html=1;" edge="1" parent="WIyWlLk6GJQsqaUBKTNV-1" source="PyQ4CkxZhW2WTcym9NRd-21" target="PyQ4CkxZhW2WTcym9NRd-23">
          <mxGeometry relative="1" as="geometry" />
        </mxCell>
        <mxCell id="PyQ4CkxZhW2WTcym9NRd-21" value="Get all Neighbour nodes of the Current Node." style="rounded=1;whiteSpace=wrap;html=1;fontSize=12;glass=0;strokeWidth=1;shadow=0;" vertex="1" parent="WIyWlLk6GJQsqaUBKTNV-1">
          <mxGeometry x="160" y="660" width="120" height="60" as="geometry" />
        </mxCell>
        <mxCell id="PyQ4CkxZhW2WTcym9NRd-26" value="" style="edgeStyle=orthogonalEdgeStyle;rounded=0;orthogonalLoop=1;jettySize=auto;html=1;entryX=0.5;entryY=0;entryDx=0;entryDy=0;" edge="1" parent="WIyWlLk6GJQsqaUBKTNV-1" source="PyQ4CkxZhW2WTcym9NRd-23" target="PyQ4CkxZhW2WTcym9NRd-25">
          <mxGeometry relative="1" as="geometry">
            <mxPoint x="200" y="840" as="targetPoint" />
          </mxGeometry>
        </mxCell>
        <mxCell id="PyQ4CkxZhW2WTcym9NRd-23" value="For each node, calculate the cost of travelline from the start node to all neighbour nodes" style="rounded=1;whiteSpace=wrap;html=1;fontSize=12;glass=0;strokeWidth=1;shadow=0;" vertex="1" parent="WIyWlLk6GJQsqaUBKTNV-1">
          <mxGeometry x="300" y="730" width="120" height="100" as="geometry" />
        </mxCell>
        <mxCell id="PyQ4CkxZhW2WTcym9NRd-30" value="" style="edgeStyle=orthogonalEdgeStyle;rounded=0;orthogonalLoop=1;jettySize=auto;html=1;" edge="1" parent="WIyWlLk6GJQsqaUBKTNV-1" source="PyQ4CkxZhW2WTcym9NRd-25" target="PyQ4CkxZhW2WTcym9NRd-29">
          <mxGeometry relative="1" as="geometry" />
        </mxCell>
        <mxCell id="PyQ4CkxZhW2WTcym9NRd-25" value="If Array does not has Neighbour Node or calculated cost of Neighbour Node is less than Neighbour Node&#39;s GCost, then set Neighbour Node&#39;s GCost as calculated cost and set Neighbour Node&#39;s HCost as distance between Neighbour Node and Target Node" style="rounded=1;whiteSpace=wrap;html=1;fontSize=12;glass=0;strokeWidth=1;shadow=0;" vertex="1" parent="WIyWlLk6GJQsqaUBKTNV-1">
          <mxGeometry x="100" y="800" width="180" height="160" as="geometry" />
        </mxCell>
        <mxCell id="PyQ4CkxZhW2WTcym9NRd-32" value="" style="edgeStyle=orthogonalEdgeStyle;rounded=0;orthogonalLoop=1;jettySize=auto;html=1;" edge="1" parent="WIyWlLk6GJQsqaUBKTNV-1" source="PyQ4CkxZhW2WTcym9NRd-29" target="PyQ4CkxZhW2WTcym9NRd-31">
          <mxGeometry relative="1" as="geometry" />
        </mxCell>
        <mxCell id="PyQ4CkxZhW2WTcym9NRd-29" value="Set the current node the parent of the neighbour node" style="rounded=1;whiteSpace=wrap;html=1;fontSize=12;glass=0;strokeWidth=1;shadow=0;" vertex="1" parent="WIyWlLk6GJQsqaUBKTNV-1">
          <mxGeometry x="310" y="855" width="180" height="50" as="geometry" />
        </mxCell>
        <mxCell id="PyQ4CkxZhW2WTcym9NRd-35" value="" style="edgeStyle=orthogonalEdgeStyle;rounded=0;orthogonalLoop=1;jettySize=auto;html=1;" edge="1" parent="WIyWlLk6GJQsqaUBKTNV-1" source="PyQ4CkxZhW2WTcym9NRd-31" target="PyQ4CkxZhW2WTcym9NRd-34">
          <mxGeometry relative="1" as="geometry" />
        </mxCell>
        <mxCell id="PyQ4CkxZhW2WTcym9NRd-31" value="Put the Neighbour Node in the Array." style="rounded=1;whiteSpace=wrap;html=1;fontSize=12;glass=0;strokeWidth=1;shadow=0;" vertex="1" parent="WIyWlLk6GJQsqaUBKTNV-1">
          <mxGeometry x="310" y="950" width="180" height="50" as="geometry" />
        </mxCell>
        <mxCell id="PyQ4CkxZhW2WTcym9NRd-36" style="edgeStyle=orthogonalEdgeStyle;rounded=0;orthogonalLoop=1;jettySize=auto;html=1;entryX=1;entryY=0.5;entryDx=0;entryDy=0;" edge="1" parent="WIyWlLk6GJQsqaUBKTNV-1" source="PyQ4CkxZhW2WTcym9NRd-34" target="WIyWlLk6GJQsqaUBKTNV-11">
          <mxGeometry relative="1" as="geometry" />
        </mxCell>
        <mxCell id="PyQ4CkxZhW2WTcym9NRd-43" value="No" style="edgeLabel;html=1;align=center;verticalAlign=middle;resizable=0;points=[];" vertex="1" connectable="0" parent="PyQ4CkxZhW2WTcym9NRd-36">
          <mxGeometry x="0.0022" relative="1" as="geometry">
            <mxPoint as="offset" />
          </mxGeometry>
        </mxCell>
        <mxCell id="PyQ4CkxZhW2WTcym9NRd-42" value="" style="edgeStyle=orthogonalEdgeStyle;rounded=0;orthogonalLoop=1;jettySize=auto;html=1;" edge="1" parent="WIyWlLk6GJQsqaUBKTNV-1" source="PyQ4CkxZhW2WTcym9NRd-34" target="PyQ4CkxZhW2WTcym9NRd-41">
          <mxGeometry relative="1" as="geometry" />
        </mxCell>
        <mxCell id="PyQ4CkxZhW2WTcym9NRd-44" value="Yes" style="edgeLabel;html=1;align=center;verticalAlign=middle;resizable=0;points=[];" vertex="1" connectable="0" parent="PyQ4CkxZhW2WTcym9NRd-42">
          <mxGeometry x="-0.2343" y="1" relative="1" as="geometry">
            <mxPoint as="offset" />
          </mxGeometry>
        </mxCell>
        <mxCell id="PyQ4CkxZhW2WTcym9NRd-34" value="Is Target node found?" style="rhombus;whiteSpace=wrap;html=1;rounded=1;glass=0;strokeWidth=1;shadow=0;" vertex="1" parent="WIyWlLk6GJQsqaUBKTNV-1">
          <mxGeometry x="580" y="855" width="80" height="80" as="geometry" />
        </mxCell>
        <mxCell id="PyQ4CkxZhW2WTcym9NRd-41" value="Use the array to get the path from the Starting node to the Target node" style="shape=parallelogram;perimeter=parallelogramPerimeter;whiteSpace=wrap;html=1;fixedSize=1;rounded=1;glass=0;strokeWidth=1;shadow=0;" vertex="1" parent="WIyWlLk6GJQsqaUBKTNV-1">
          <mxGeometry x="530" y="695" width="180" height="105" as="geometry" />
        </mxCell>
      </root>
    </mxGraphModel>
  </diagram>
</mxfile>
